<svg height="512" viewBox="0 0 60 60" width="512" xmlns="http://www.w3.org/2000/svg"><g id="Page-1" fill="none" fill-rule="evenodd"><g id="057---Face-Detection" fill="rgb(0,0,0)" fill-rule="nonzero"><path id="Shape" d="m57 0h-54c-1.65685425 0-3 1.34314575-3 3v54c0 1.6568542 1.34314575 3 3 3h54c1.6568542 0 3-1.3431458 3-3v-54c0-1.65685425-1.3431458-3-3-3zm1 57c0 .5522847-.4477153 1-1 1h-54c-.55228475 0-1-.4477153-1-1v-54c0-.55228475.44771525-1 1-1h54c.5522847 0 1 .44771525 1 1z"/><path id="Shape" d="m5 11c.55228475 0 1-.4477153 1-1v-4h4c.5522847 0 1-.44771525 1-1s-.4477153-1-1-1h-5c-.55228475 0-1 .44771525-1 1v5c0 .5522847.44771525 1 1 1z"/><path id="Shape" d="m55 4h-5c-.5522847 0-1 .44771525-1 1s.4477153 1 1 1h4v4c0 .5522847.4477153 1 1 1s1-.4477153 1-1v-5c0-.55228475-.4477153-1-1-1z"/><path id="Shape" d="m9 54h-3v-4c0-.5522847-.44771525-1-1-1s-1 .4477153-1 1v5c0 .5522847.44771525 1 1 1h4c.55228475 0 1-.4477153 1-1s-.44771525-1-1-1z"/><path id="Shape" d="m55 49c-.5522847 0-1 .4477153-1 1v4h-4c-.5522847 0-1 .4477153-1 1s.4477153 1 1 1h5c.5522847 0 1-.4477153 1-1v-5c0-.5522847-.4477153-1-1-1z"/><path id="Shape" d="m49.09 43.768c.3931791-.1683764.7667388-.3793001 1.114-.629.6784942-.5499498 1.0292137-1.4082698.93-2.276.0857228-.0708065.1665729-.1473134.242-.229.6030479-.6554167.8743738-1.5500192.737-2.43-.1322064-.699213-.4375025-1.3541558-.888-1.905 1.686-.989 1.844-2.187 1.756-2.882-.2863225-1.0398857-.8058014-2.0008704-1.519-2.81-1.1039265-1.3151354-1.902128-2.8589398-2.337-4.52-.1372862-1.4028253-.0655034-2.8182611.213-4.2.2463872-1.3442118.3449737-2.7113449.294-4.077-.582-8.121-7.109-13-18.378-13.735-6-.388-10.921.755-15.048 3.5-3.4982053 2.34356037-6.1506169 5.7493467-7.566 9.715-1.328 4.021-.554 8.351 2.237 12.523.655.981 1.387 1.939 2.095 2.867 1.6546234 1.9356729 2.986375 4.1254317 3.944 6.485 1.0970963 3.3472512.6222127 7.0110589-1.292 9.968-.9667461 1.5354544-2.0411045 3.0004583-3.215 4.384-.3846027.4432922-.4753555 1.0701642-.23226 1.6043288.2430954.5341645.775382.8774947 1.36226.8786712h21.271c.4663617-.0004882.8704679-.3232752.974-.778.0423312-.2235195.0268412-.4541488-.045-.67-.778-3.606-.649-5.578-.386-6.615 1.961.923 3.949 1.691 5.827 2.369 1.0005482.4003237 2.0613987.6291942 3.138.677 1.3352317.029415 2.585342-.6535367 3.282-1.793.4212094-.9348347.558226-1.9728918.394-2.985-.065-.955-.082-1.561.244-1.927.2502602-.2208938.5390827-.3937805.852-.51zm-2.348-.819c-.7087207.9784654-.9776073 2.2080237-.742 3.393.1130464.6316471.06033 1.2818159-.153 1.887-.3633431.4959795-.9496658.778644-1.564.754-.8359573-.0401849-1.6579487-.2298492-2.427-.56-2.2087217-.7748999-4.3709702-1.6763932-6.476-2.7l-.015-.009c-.0563318-.0356791-.116345-.0651828-.179-.088-2.2821671-1.1109694-4.3995895-2.5324557-6.292-4.224l-.362-.325c-.749-.67-2-1.79-2.057-2.588-.0482332-.5464925-.5200951-.9569417-1.068-.929-.2647311.0184481-.5112736.1413654-.6853314.341682-.1740579.2003167-.261356.4616037-.2426686.726318.112 1.609 1.62 2.956 2.72 3.94l.341.307c1.8127157 1.6328979 3.8271035 3.0269054 5.994 4.148-.533 1.6-.515 3.942.056 6.974h-18.982c.9790082-1.2196623 1.8868493-2.4947801 2.719-3.819 2.2054546-3.4698106 2.7498332-7.7419912 1.485-11.654-1.019181-2.5711439-2.4550837-4.9567695-4.25-7.061-.721-.945-1.4-1.836-2.022-2.764-2.472-3.694-3.144-7.322-2-10.783 1.2739791-3.5464916 3.6521972-6.590681 6.785-8.685 3.74-2.488 8.256-3.521 13.8-3.165 7.179.468 15.87 2.91 16.514 11.88.0382921 1.221165-.055249 2.4428981-.279 3.644-.3112128 1.5765644-.3830193 3.1910318-.213 4.789.4657895 1.9812356 1.386805 3.8266904 2.69 5.39.4707938.5752699.8619757 1.2113188 1.163 1.891.053.422-.641.956-1.768 1.362-.3226033.1156762-.5634981.3884997-.6383373.7229439-.0748393.3344442.0268029.6839179.2693373.9260561.599912.4822347 1.0455649 1.1295089 1.282 1.862.0312798.2674688-.0523027.5356596-.23.738-.0528199.057955-.1229863.0972482-.2.112-.4738716-.0464766-.9147929.2476106-1.0539499.7029673s.062049.945678.4809499 1.1720327c-.0220668.1133449-.0770185.2176836-.158.3-.2315026.1579218-.4784344.2919417-.737.4-.5660283.2203309-1.078956.5580794-1.505.991z"/></g></g></svg>